<svg width="158" height="158" viewBox="0 0 158 158" fill="none" xmlns="http://www.w3.org/2000/svg">
<g id="Bot&#195;&#163;o - LoL">
<path id="Vector" fill-rule="evenodd" clip-rule="evenodd" d="M48.0228 31.2487C46.963 31.6867 46.4137 33.0286 46.8756 34.0507C47.0755 34.4934 48.5893 36.6805 50.2398 38.9114L53.2402 42.9672L53.2406 79.0824L53.2412 115.197L48.9363 119.393C45.2333 123.003 44.6317 123.735 44.6317 124.627C44.6317 125.897 45.3045 126.626 46.7117 126.881C47.2977 126.987 61.8183 127.031 78.9797 126.977L110.182 126.881L116.145 120.875C121.316 115.668 122.108 114.733 122.108 113.834C122.108 111.579 123.392 111.692 97.8294 111.692H74.7615V72.0203V32.3483L74.0649 31.7124C73.4093 31.1138 72.6461 31.0725 61.0693 31.008C54.1133 30.9693 48.4456 31.0741 48.0228 31.2487ZM79.0658 42.0923V44.2621H80.8434C84.9954 44.2621 91.9961 46.0867 96.3567 48.3049C117.154 58.8857 124.229 85.4996 111.382 104.817C110.543 106.077 109.858 107.168 109.858 107.244C109.858 107.318 111.073 107.336 112.559 107.283L115.259 107.186L116.996 104.074C118.989 100.504 120.847 95.1729 121.613 90.8253C122.303 86.911 122.303 79.728 121.613 75.8074C120.488 69.4119 117.426 62.2843 113.592 57.1345C109.791 52.0309 102.93 46.4318 97.2552 43.8034C92.2524 41.4864 85.8397 39.9225 81.3401 39.9225H79.0658V42.0923ZM79.0658 77.9812V107.361L91.7177 107.273L104.37 107.186L106.304 104.682C108.675 101.613 111.595 95.7504 112.538 92.1642C113.436 88.7533 113.762 81.3847 113.178 77.7321C112.413 72.9506 110.468 68.0265 107.628 63.6789C105.988 61.17 101.26 56.3935 98.7011 54.6627C93.2033 50.943 86.3744 48.6016 81.0232 48.6016H79.0658V77.9812ZM46.6504 54.5979C39.4782 63.005 36.008 72.3634 36 83.3182C35.9927 94.2625 39.3752 103.44 46.5296 111.885L48.7704 114.53L48.8651 111.277L48.9598 108.024L47.5795 106.14C43.0093 99.9036 40.3274 91.4632 40.3274 83.3182C40.3274 75.2549 42.6143 67.8469 47.1679 61.1597L48.9588 58.5292L48.8648 55.3209L48.7704 52.1127L46.6504 54.5979ZM47.5106 69.2443C45.5565 73.5545 44.9092 76.5121 44.7224 81.9829C44.5969 85.6702 44.6896 87.5389 45.1121 89.8275C45.626 92.6098 47.9039 99.0962 48.6231 99.8252C48.8194 100.024 48.936 93.9067 48.936 83.3849C48.936 74.1684 48.8823 66.6275 48.8164 66.6275C48.7509 66.6275 48.1632 67.8049 47.5106 69.2443Z" fill="#414545"/>
<rect id="Rectangle 3" x="11.5" y="11.5" width="135" height="135" rx="7.5" stroke="#414545"/>
<g id="Rectangle 5" filter="url(#filter0_f_15_64)">
<rect x="11" y="11" width="136" height="136" rx="8" stroke="#414545" stroke-width="2"/>
</g>
</g>
<defs>
<filter id="filter0_f_15_64" x="0" y="0" width="158" height="158" filterUnits="userSpaceOnUse" color-interpolation-filters="sRGB">
<feFlood flood-opacity="0" result="BackgroundImageFix"/>
<feBlend mode="normal" in="SourceGraphic" in2="BackgroundImageFix" result="shape"/>
<feGaussianBlur stdDeviation="5" result="effect1_foregroundBlur_15_64"/>
</filter>
</defs>
</svg>
