<svg width="136" height="136" viewBox="0 0 136 136" fill="none" xmlns="http://www.w3.org/2000/svg">
<g id="Bot&#195;&#163;o - Valorante">
<path id="Vector" fill-rule="evenodd" clip-rule="evenodd" d="M16 46.8551V68.3177L33.2192 90.1301L50.4383 111.943L67.6575 111.998C77.1287 112.028 84.8767 111.761 84.8767 111.403C84.8767 110.474 18.6536 27.0349 17.2047 26.1372C16.4508 25.672 16 33.4356 16 46.8551ZM97.6239 52.358C85.6932 67.4049 75.6297 80.5034 75.2615 81.4651C74.7092 82.9057 77.3691 83.2154 90.2753 83.2154C98.9025 83.2154 106.821 82.8844 107.873 82.4806C108.923 82.0769 112.083 78.6979 114.892 74.9729L120 68.1986L119.658 46.5993L119.315 25L97.6239 52.358Z" fill="#B8C4C4"/>
</g>
</svg>
