<svg width="52" height="52" viewBox="0 0 52 52" fill="none" xmlns="http://www.w3.org/2000/svg">
<g id="Icono - Zap">
<circle id="Ellipse 2" cx="26" cy="26" r="24" fill="#212626" stroke="#F0F7F8" stroke-width="4"/>
<path id="Vector" d="M37.2646 32.3366V35.8759C37.2659 36.2044 37.1985 36.5297 37.0666 36.8307C36.9347 37.1317 36.7413 37.402 36.4987 37.6241C36.2561 37.8462 35.9697 38.0153 35.6579 38.1206C35.346 38.2258 35.0155 38.2649 34.6877 38.2354C31.0502 37.8409 27.5561 36.6004 24.4862 34.6136C21.6301 32.8022 19.2086 30.3856 17.3937 27.5351C15.396 24.4574 14.1527 20.9533 13.7647 17.3067C13.7352 16.9805 13.774 16.6517 13.8788 16.3412C13.9836 16.0308 14.1519 15.7455 14.3732 15.5036C14.5945 15.2617 14.8638 15.0684 15.1641 14.936C15.4643 14.8037 15.7889 14.7352 16.1171 14.7349H19.6633C20.237 14.7292 20.7932 14.932 21.2281 15.3053C21.6631 15.6786 21.9472 16.1971 22.0275 16.764C22.1772 17.8966 22.4548 19.0087 22.855 20.0791C23.014 20.5014 23.0484 20.9603 22.9542 21.4015C22.8599 21.8426 22.6408 22.2476 22.323 22.5684L20.8218 24.0666C22.5045 27.0202 24.9549 29.4657 27.9143 31.1451L29.4155 29.6468C29.7369 29.3296 30.1427 29.111 30.5848 29.017C31.0268 28.9229 31.4867 28.9572 31.9097 29.1159C32.9822 29.5153 34.0965 29.7924 35.2314 29.9418C35.8056 30.0226 36.33 30.3113 36.7049 30.7528C37.0798 31.1944 37.279 31.7581 37.2646 32.3366Z" fill="#F0F7F8"/>
</g>
</svg>
