<svg width="56" height="50" viewBox="0 0 56 50" fill="none" xmlns="http://www.w3.org/2000/svg">
<g id="Icone -  Mestres dos Jobs">
<path id="Vector" d="M39.2069 47V42.0423C39.2069 39.4125 38.2532 36.8905 36.5557 35.031C34.8582 33.1715 32.5558 32.1268 30.1552 32.1268H12.0517C9.65106 32.1268 7.34872 33.1715 5.65119 35.031C3.95366 36.8905 3 39.4125 3 42.0423V47" stroke="#DBE1E1" stroke-width="6" stroke-linecap="round" stroke-linejoin="round"/>
<path id="Vector_2" d="M21.1035 22.831C26.0233 22.831 30.0115 18.3917 30.0115 12.9155C30.0115 7.43932 26.0233 3 21.1035 3C16.1837 3 12.1954 7.43932 12.1954 12.9155C12.1954 18.3917 16.1837 22.831 21.1035 22.831Z" stroke="#DBE1E1" stroke-width="6" stroke-linecap="round" stroke-linejoin="round"/>
<path id="Vector_3" d="M53.0001 47V42.1436C52.9985 39.9916 52.3204 37.901 51.0722 36.2002C49.8239 34.4993 48.0762 33.2845 46.1035 32.7465" stroke="#DBE1E1" stroke-width="6" stroke-linecap="round" stroke-linejoin="round"/>
<path id="Vector_4" d="M36.908 3.61972C38.8808 4.1482 40.6293 5.34862 41.878 7.03171C43.1267 8.71481 43.8045 10.7849 43.8045 12.9155C43.8045 15.0461 43.1267 17.1162 41.878 18.7993C40.6293 20.4824 38.8808 21.6828 36.908 22.2113" stroke="#DBE1E1" stroke-width="6" stroke-linecap="round" stroke-linejoin="round"/>
</g>
</svg>
