<svg width="86" height="96" viewBox="0 0 86 96" fill="none" xmlns="http://www.w3.org/2000/svg">
<path id="Logo LoL" fill-rule="evenodd" clip-rule="evenodd" d="M12.0045 0.248705C10.9463 0.686667 10.3979 2.02859 10.859 3.05073C11.0587 3.49336 12.5702 5.68051 14.2182 7.91138L17.214 11.9672L17.2144 48.0824L17.215 84.1973L12.9166 88.3933C9.21928 92.0028 8.61859 92.7345 8.61859 93.6272C8.61859 94.8966 9.29036 95.6257 10.6954 95.8807C11.2805 95.9869 25.7791 96.0306 42.9144 95.9772L74.0696 95.8807L80.0236 89.8754C85.1868 84.668 85.9776 83.7326 85.9776 82.8337C85.9776 80.5791 87.2593 80.6922 61.7354 80.6922H38.7026V41.0203V1.34828L38.0071 0.712371C37.3525 0.113845 36.5905 0.0724515 25.0313 0.00802566C18.0858 -0.0306966 12.4267 0.0741208 12.0045 0.248705ZM43.0004 11.0923V13.2621H44.7753C48.921 13.2621 55.911 15.0867 60.265 17.3049C81.0302 27.8857 88.0954 54.4996 75.267 73.8167C74.4303 75.0765 73.7456 76.1684 73.7456 76.2435C73.7456 76.3183 74.9592 76.336 76.4422 76.2826L79.1386 76.1858L80.8729 73.0743C82.8627 69.5042 84.7177 64.1729 85.483 59.8253C86.1723 55.911 86.1723 48.728 85.4833 44.8074C84.3596 38.4119 81.3023 31.2843 77.4737 26.1345C73.6791 21.0309 66.8286 15.4318 61.1622 12.8034C56.1669 10.4864 49.764 8.9225 45.2712 8.9225H43.0004V11.0923ZM43.0004 46.9812V76.3607L55.633 76.2732L68.266 76.1858L70.197 73.6822C72.5644 70.6131 75.4799 64.7504 76.4221 61.1642C77.318 57.7533 77.644 50.3847 77.0605 46.7321C76.2964 41.9506 74.3545 37.0265 71.5187 32.6789C69.8819 30.17 65.1604 25.3935 62.6059 23.6627C57.1164 19.943 50.2979 17.6016 44.9548 17.6016H43.0004V46.9812ZM10.6342 23.5979C3.4729 32.005 0.00794597 41.3634 1.17211e-05 52.3182C-0.00726134 63.2625 3.37009 72.4397 10.5136 80.8845L12.751 83.5297L12.8456 80.277L12.9401 77.0243L11.5619 75.1403C6.99868 68.9036 4.32087 60.4632 4.32087 52.3182C4.32087 44.2549 6.60429 36.8469 11.1509 30.1597L12.9391 27.5292L12.8452 24.3209L12.751 21.1127L10.6342 23.5979ZM11.4931 38.2443C9.54194 42.5545 8.89563 45.5121 8.70918 50.9829C8.58388 54.6702 8.67645 56.5389 9.09829 58.8275C9.61137 61.6098 11.8859 68.0962 12.6039 68.8252C12.7999 69.0245 12.9163 62.9067 12.9163 52.3849C12.9163 43.1684 12.8628 35.6275 12.797 35.6275C12.7315 35.6275 12.1447 36.8049 11.4931 38.2443Z" fill="#DBE1E1"/>
</svg>
